      <svg width="66" height="66" viewBox="0 0 66 66" fill="none" xmlns="http://www.w3.org/2000/svg">
<circle cx="33" cy="33" r="23" fill="white"/>
<path fill-rule="evenodd" clip-rule="evenodd" d="M30 3C30 1.34315 31.3431 0 33 0C34.6569 0 36 1.34315 36 3V10.1939C40.1072 10.7289 43.8739 12.3475 47.004 14.7533L48.5564 13.201C49.7279 12.0294 51.6274 12.0294 52.799 13.201C53.9706 14.3726 53.9706 16.2721 52.799 17.4437L51.2467 18.996C53.6525 22.1261 55.2711 25.8928 55.8061 30H63C64.6569 30 66 31.3431 66 33C66 34.6569 64.6569 36 63 36H55.8061C55.2711 40.1072 53.6525 43.8739 51.2467 47.004L52.799 48.5563C53.9706 49.7279 53.9706 51.6274 52.799 52.799C51.6274 53.9706 49.7279 53.9706 48.5564 52.799L47.004 51.2467C43.874 53.6525 40.1072 55.2711 36 55.8061V63C36 64.6569 34.6569 66 33 66C31.3431 66 30 64.6569 30 63V55.8061C25.8928 55.2711 22.1261 53.6525 18.996 51.2467L17.4437 52.799C16.2721 53.9706 14.3726 53.9706 13.201 52.799C12.0294 51.6274 12.0294 49.7279 13.201 48.5564L14.7533 47.004C12.3475 43.8739 10.7289 40.1072 10.1939 36H3C1.34315 36 0 34.6569 0 33C0 31.3431 1.34315 30 3 30H10.1939C10.7289 25.8928 12.3475 22.1261 14.7534 18.996L13.201 17.4436C12.0295 16.2721 12.0295 14.3726 13.201 13.201C14.3726 12.0294 16.2721 12.0294 17.4437 13.201L18.996 14.7533C22.1261 12.3475 25.8928 10.7289 30 10.1939V3ZM30 24C30 27.3137 27.3137 30 24 30C20.6863 30 18 27.3137 18 24C18 20.6863 20.6863 18 24 18C27.3137 18 30 20.6863 30 24ZM33 18C34.1046 18 35 17.1046 35 16C35 14.8954 34.1046 14 33 14C31.8954 14 31 14.8954 31 16C31 17.1046 31.8954 18 33 18Z" fill="#5D6980"/>
</svg>